<svg width="91" height="102" viewBox="0 0 91 102" fill="none" xmlns="http://www.w3.org/2000/svg">
<path fill-rule="evenodd" clip-rule="evenodd" d="M50.9091 50.8645L0.388672 50.8645L0.38867 0.341467L6.2175 0.341466C31.3636 3.15939 50.9113 24.4923 50.9113 50.3909C50.9113 50.5489 50.9106 50.7068 50.9091 50.8645Z" fill="#F18A00"/>
<path fill-rule="evenodd" clip-rule="evenodd" d="M101.431 50.8645L50.9102 50.8645L50.9102 0.341465L56.7386 0.341465C81.8849 3.15916 101.433 24.4922 101.433 50.3909C101.433 50.5489 101.432 50.7068 101.431 50.8645Z" fill="#6DD6D3"/>
<path fill-rule="evenodd" clip-rule="evenodd" d="M0.391657 50.8645L50.9121 50.8645L50.9121 101.388L45.0833 101.388C19.9372 98.5696 0.389474 77.2367 0.389475 51.3381C0.389475 51.1801 0.390204 51.0222 0.391657 50.8645Z" fill="#EEDEBB"/>
<path fill-rule="evenodd" clip-rule="evenodd" d="M50.9121 101.385V50.8645H101.435V56.6852C98.6211 81.8354 77.2863 101.388 51.3848 101.388C51.2271 101.388 51.0695 101.387 50.9121 101.385Z" fill="#100F08"/>
</svg>
