<svg width="26" height="25" viewBox="0 0 26 25" fill="none" xmlns="http://www.w3.org/2000/svg">
<path d="M24.9531 2.73438L21.9531 22.1875C21.9062 22.6562 21.625 23.0781 21.2031 23.3125C20.9688 23.4062 20.7344 23.5 20.4531 23.5C20.2656 23.5 20.0781 23.4531 19.8906 23.3594L14.1719 20.9688L11.7812 24.5312C11.5938 24.8594 11.2656 25 10.9375 25C10.4219 25 10 24.5781 10 24.0625V19.5625C10 19.1875 10.0938 18.8594 10.2812 18.625L20.5 5.5L6.71875 17.9219L1.89062 15.9062C1.375 15.6719 1 15.2031 1 14.5938C0.953125 13.9375 1.23438 13.4688 1.75 13.1875L22.75 1.23438C23.2188 0.953125 23.875 0.953125 24.3438 1.28125C24.8125 1.60938 25.0469 2.17188 24.9531 2.73438Z" fill="#6DD6D3"/>
</svg>
