<svg width="103" height="188" viewBox="0 0 103 188" fill="none" xmlns="http://www.w3.org/2000/svg">
<g clip-path="url(#clip0_712_147594)">
<g clip-path="url(#clip1_712_147594)">
<circle cx="83.0278" cy="83.0278" r="69.4167" transform="matrix(-1 0 0 1 186.611 6.34131)" stroke="#2D2D2D" stroke-width="27.2222"/>
<circle cx="7.4203" cy="77.2042" r="3.91835" fill="#F18A00"/>
<circle cx="22.2582" cy="77.2042" r="3.91835" fill="#F18A00"/>
<circle cx="37.0941" cy="77.2042" r="3.91835" fill="#F18A00"/>
<circle cx="51.932" cy="77.2042" r="3.91835" fill="#F18A00"/>
<circle cx="7.4203" cy="93.0409" r="3.91835" fill="#F18A00"/>
<circle cx="22.2582" cy="93.0409" r="3.91835" fill="#F18A00"/>
<circle cx="37.0941" cy="93.0409" r="3.91835" fill="#F18A00"/>
<circle cx="51.932" cy="93.0409" r="3.91835" fill="#F18A00"/>
<circle cx="7.4203" cy="108.878" r="3.91835" fill="#F18A00"/>
<circle cx="22.2582" cy="108.878" r="3.91835" fill="#F18A00"/>
<circle cx="37.0941" cy="108.878" r="3.91835" fill="#F18A00"/>
<circle cx="51.932" cy="108.878" r="3.91835" fill="#F18A00"/>
<circle cx="7.4203" cy="124.714" r="3.91835" fill="#F18A00"/>
<circle cx="22.2582" cy="124.714" r="3.91835" fill="#F18A00"/>
<circle cx="37.0941" cy="124.714" r="3.91835" fill="#F18A00"/>
<circle cx="51.932" cy="124.714" r="3.91835" fill="#F18A00"/>
</g>
</g>
<defs>
<clipPath id="clip0_712_147594">
<rect width="103" height="188" fill="white"/>
</clipPath>
<clipPath id="clip1_712_147594">
<rect width="141.167" height="191.333" fill="white" transform="matrix(-1 0 0 1 103.777 0.119141)"/>
</clipPath>
</defs>
</svg>
