<svg width="137" height="42" viewBox="0 0 137 42" fill="none" xmlns="http://www.w3.org/2000/svg">
<path d="M11.0443 21.1329C11.0443 18.004 8.57618 15.4694 5.52997 15.4694C2.48377 15.4694 0.0195312 18.006 0.0195312 21.1329C0.0195312 24.2598 2.48569 26.8004 5.52997 26.8004C8.57426 26.8004 11.0443 24.2618 11.0443 21.1329ZM5.52997 25.0396C3.43835 25.0396 1.73086 23.2886 1.73086 21.1329C1.73086 18.9772 3.43643 17.2302 5.52997 17.2302C7.62352 17.2302 9.33101 18.9812 9.33101 21.1329C9.33101 23.2846 7.62928 25.0396 5.52997 25.0396ZM32.3619 15.4694C29.3176 15.4694 26.8476 18.006 26.8476 21.1329C26.8476 24.2598 29.3176 26.8004 32.3619 26.8004C35.4062 26.8004 37.8743 24.2618 37.8743 21.1329C37.8743 18.004 35.4043 15.4694 32.3619 15.4694ZM32.3619 25.0396C30.2645 25.0396 28.559 23.2886 28.559 21.1329C28.559 18.9772 30.2645 17.2302 32.3619 17.2302C34.4593 17.2302 36.1591 18.9812 36.1591 21.1329C36.1591 23.2846 34.4574 25.0396 32.3619 25.0396ZM18.944 12.4668C21.9922 12.4668 24.4583 9.92819 24.4583 6.80129C24.4583 3.67439 21.9902 1.13379 18.944 1.13379C15.8978 1.13379 13.4336 3.67439 13.4336 6.80129C13.4336 9.92819 15.9036 12.4668 18.944 12.4668ZM18.944 2.89267C21.0395 2.89267 22.7451 4.6476 22.7451 6.80129C22.7451 8.95498 21.0395 10.706 18.944 10.706C16.8486 10.706 15.1468 8.95301 15.1468 6.80129C15.1468 4.64958 16.8486 2.89267 18.944 2.89267ZM18.944 29.6648C15.9036 29.6648 13.4336 32.2034 13.4336 35.3263C13.4336 38.4493 15.9036 40.9938 18.944 40.9938C21.9845 40.9938 24.4583 38.4592 24.4583 35.3263C24.4583 32.1935 21.9902 29.6648 18.944 29.6648ZM18.944 39.233C16.8486 39.233 15.1468 37.482 15.1468 35.3263C15.1468 33.1707 16.8486 31.4236 18.944 31.4236C21.0395 31.4236 22.7451 33.1707 22.7451 35.3263C22.7451 37.482 21.0395 39.233 18.944 39.233ZM32.3619 29.6648C31.2249 29.6648 30.1666 30.0221 29.2869 30.6261L23.3482 24.5283C24.0434 23.5827 24.4602 22.4101 24.4602 21.1309C24.4602 19.8517 24.0223 18.618 23.2944 17.6566L29.285 11.5015C30.1666 12.1095 31.223 12.4668 32.3619 12.4668C35.4043 12.4668 37.8743 9.92819 37.8743 6.80129C37.8743 3.67439 35.4043 1.13379 32.3619 1.13379C29.3196 1.13379 26.8476 3.67439 26.8476 6.80129C26.8476 8.12193 27.2913 9.33598 28.0327 10.3013L22.044 16.4524C21.1605 15.8306 20.0945 15.4674 18.944 15.4674C17.7052 15.4674 16.5643 15.8958 15.6424 16.6084L9.7017 10.5007C10.5334 9.50574 11.0443 8.21471 11.0443 6.80129C11.0443 3.67439 8.57618 1.13379 5.52997 1.13379C2.48377 1.13379 0.0195312 3.67637 0.0195312 6.80327C0.0195312 9.93016 2.48569 12.4688 5.52997 12.4688C6.57675 12.4688 7.55437 12.1608 8.38603 11.6417L14.4477 17.8718C13.812 18.7956 13.4317 19.9189 13.4317 21.1349C13.4317 22.3509 13.787 23.4149 14.3862 24.323L8.31496 30.5669L9.52307 31.8125L15.5636 25.6081C16.4971 26.3523 17.6668 26.8044 18.9421 26.8044C20.1291 26.8044 21.222 26.4174 22.1228 25.764L28.0308 31.8382C27.2913 32.8015 26.8476 34.0116 26.8476 35.3323C26.8476 38.4671 29.3176 40.9998 32.3619 40.9998C35.4062 40.9998 37.8743 38.4651 37.8743 35.3323C37.8743 32.1994 35.4043 29.6707 32.3619 29.6707V29.6648ZM32.3619 2.89267C34.4574 2.89267 36.1591 4.6476 36.1591 6.80129C36.1591 8.95498 34.4574 10.706 32.3619 10.706C30.2665 10.706 28.559 8.95301 28.559 6.80129C28.559 4.64958 30.2645 2.89267 32.3619 2.89267ZM5.52997 10.7079C3.43835 10.7079 1.73086 8.95498 1.73086 6.80327C1.73086 4.65155 3.43643 2.89464 5.52997 2.89464C7.62352 2.89464 9.33101 4.64958 9.33101 6.80327C9.33101 8.95696 7.62928 10.7079 5.52997 10.7079ZM18.944 25.0396C16.8486 25.0396 15.1468 23.2886 15.1468 21.1329C15.1468 18.9772 16.8486 17.2302 18.944 17.2302C21.0395 17.2302 22.7451 18.9812 22.7451 21.1329C22.7451 23.2846 21.0395 25.0396 18.944 25.0396ZM32.3619 39.235C30.2645 39.235 28.559 37.484 28.559 35.3283C28.559 33.1727 30.2645 31.4256 32.3619 31.4256C34.4593 31.4256 36.1591 33.1727 36.1591 35.3283C36.1591 37.484 34.4574 39.235 32.3619 39.235Z" fill="#F18A00"/>
<path d="M71.2665 7.59719C69.1326 6.40289 66.8258 5.79883 64.4135 5.79883C60.4088 5.79883 56.9343 7.30898 54.0898 10.2858C51.2491 13.2489 49.8086 16.8772 49.8086 21.0661C49.8086 25.2551 51.2491 28.8834 54.0898 31.8445C56.9324 34.8233 60.4069 36.3335 64.4154 36.3335C66.8316 36.3335 69.1364 35.7294 71.2645 34.539C73.3965 33.3586 75.1558 31.6984 76.4984 29.6019L77.2398 28.4846L75.0752 27.0692L74.3837 28.1392C73.2678 29.8763 71.8081 31.2582 70.043 32.2452C68.2933 33.2184 66.3995 33.7119 64.4135 33.7119C61.108 33.7119 58.2462 32.4683 55.9125 30.0204C53.5693 27.5509 52.3804 24.5385 52.3804 21.0681C52.3804 17.5977 53.5674 14.5873 55.9087 12.1178C58.2462 9.666 61.108 8.42234 64.4135 8.42234C66.3995 8.42234 68.2952 8.92178 70.0488 9.9088C71.8081 10.88 73.264 12.252 74.3741 13.9813L75.0694 15.1006L77.2321 13.6358L76.508 12.5442C75.1578 10.4359 73.3946 8.77175 71.2665 7.59719Z" fill="#F18A00"/>
<path d="M100.675 7.59719C98.5408 6.40289 96.234 5.79883 93.8197 5.79883C89.8151 5.79883 86.3406 7.30898 83.496 10.2858C80.6554 13.2469 79.2148 16.8752 79.2148 21.0661C79.2148 25.2571 80.6554 28.8854 83.496 31.8445C86.3387 34.8233 89.8132 36.3335 93.8197 36.3335C96.2359 36.3335 98.5408 35.7294 100.671 34.539C102.805 33.3566 104.564 31.6964 105.905 29.6019L106.646 28.4846L104.481 27.0692L103.788 28.1372C102.663 29.8862 101.207 31.2621 99.4492 32.2452C97.6995 33.2184 95.8057 33.7119 93.8178 33.7119C90.5123 33.7119 87.6505 32.4683 85.3169 30.0204C82.9736 27.5509 81.7847 24.5385 81.7847 21.0681C81.7847 17.5977 82.9717 14.5853 85.3149 12.1178C87.6524 9.666 90.5142 8.42234 93.8178 8.42234C95.8038 8.42234 97.6995 8.92178 99.4531 9.9088C101.216 10.882 102.67 12.252 103.78 13.9793L104.474 15.1006L106.638 13.6358L105.914 12.5442C104.566 10.4359 102.803 8.77175 100.675 7.59719Z" fill="#F18A00"/>
<path d="M122.952 5.87988C114.681 5.87988 107.951 12.7456 107.951 21.1827C107.951 29.6198 114.718 36.2546 122.727 36.2546C126.872 36.2546 130.953 34.4642 133.646 31.4636C136.435 28.3387 136.744 24.7242 136.681 21.6012L136.675 21.2874H124.173V23.6542H134.253L134.241 23.826C134.044 26.8167 133.028 28.9585 130.946 30.7687C128.518 32.7823 125.641 33.8897 122.84 33.8897C116.08 33.8897 110.367 28.0189 110.367 21.0702C110.367 14.1216 116.195 8.25072 122.84 8.25072C127.131 8.25072 130.903 10.4103 133.46 14.3328L133.648 14.619L135.603 13.022L135.427 12.7752C132.217 8.26651 127.903 5.88186 122.952 5.88186V5.87988Z" fill="#F18A00"/>
</svg>
