<svg width="715" height="663" viewBox="0 0 715 663" fill="none" xmlns="http://www.w3.org/2000/svg">
<circle cx="7.5" cy="535.5" r="7.5" fill="#6DD6D3"/>
<circle cx="37.5" cy="535.5" r="7.5" fill="#6DD6D3"/>
<circle cx="67.5" cy="535.5" r="7.5" fill="#6DD6D3"/>
<circle cx="97.5" cy="535.5" r="7.5" fill="#6DD6D3"/>
<circle cx="127.5" cy="535.5" r="7.5" fill="#6DD6D3"/>
<circle cx="157.5" cy="535.5" r="7.5" fill="#6DD6D3"/>
<circle cx="187.5" cy="535.5" r="7.5" fill="#6DD6D3"/>
<circle cx="217.5" cy="535.5" r="7.5" fill="#6DD6D3"/>
<circle cx="247.5" cy="535.5" r="7.5" fill="#6DD6D3"/>
<circle cx="277.5" cy="535.5" r="7.5" fill="#6DD6D3"/>
<circle cx="307.5" cy="535.5" r="7.5" fill="#6DD6D3"/>
<circle cx="7.5" cy="565.5" r="7.5" fill="#6DD6D3"/>
<circle cx="37.5" cy="565.5" r="7.5" fill="#6DD6D3"/>
<circle cx="67.5" cy="565.5" r="7.5" fill="#6DD6D3"/>
<circle cx="97.5" cy="565.5" r="7.5" fill="#6DD6D3"/>
<circle cx="127.5" cy="565.5" r="7.5" fill="#6DD6D3"/>
<circle cx="157.5" cy="565.5" r="7.5" fill="#6DD6D3"/>
<circle cx="187.5" cy="565.5" r="7.5" fill="#6DD6D3"/>
<circle cx="217.5" cy="565.5" r="7.5" fill="#6DD6D3"/>
<circle cx="247.5" cy="565.5" r="7.5" fill="#6DD6D3"/>
<circle cx="277.5" cy="565.5" r="7.5" fill="#6DD6D3"/>
<circle cx="307.5" cy="565.5" r="7.5" fill="#6DD6D3"/>
<circle cx="7.5" cy="595.5" r="7.5" fill="#6DD6D3"/>
<circle cx="37.5" cy="595.5" r="7.5" fill="#6DD6D3"/>
<circle cx="67.5" cy="595.5" r="7.5" fill="#6DD6D3"/>
<circle cx="97.5" cy="595.5" r="7.5" fill="#6DD6D3"/>
<circle cx="127.5" cy="595.5" r="7.5" fill="#6DD6D3"/>
<circle cx="157.5" cy="595.5" r="7.5" fill="#6DD6D3"/>
<circle cx="187.5" cy="595.5" r="7.5" fill="#6DD6D3"/>
<circle cx="217.5" cy="595.5" r="7.5" fill="#6DD6D3"/>
<circle cx="247.5" cy="595.5" r="7.5" fill="#6DD6D3"/>
<circle cx="277.5" cy="595.5" r="7.5" fill="#6DD6D3"/>
<circle cx="307.5" cy="595.5" r="7.5" fill="#6DD6D3"/>
<circle cx="7.5" cy="625.5" r="7.5" fill="#6DD6D3"/>
<circle cx="37.5" cy="625.5" r="7.5" fill="#6DD6D3"/>
<circle cx="67.5" cy="625.5" r="7.5" fill="#6DD6D3"/>
<circle cx="97.5" cy="625.5" r="7.5" fill="#6DD6D3"/>
<circle cx="127.5" cy="625.5" r="7.5" fill="#6DD6D3"/>
<circle cx="157.5" cy="625.5" r="7.5" fill="#6DD6D3"/>
<circle cx="187.5" cy="625.5" r="7.5" fill="#6DD6D3"/>
<circle cx="217.5" cy="625.5" r="7.5" fill="#6DD6D3"/>
<circle cx="247.5" cy="625.5" r="7.5" fill="#6DD6D3"/>
<circle cx="277.5" cy="625.5" r="7.5" fill="#6DD6D3"/>
<circle cx="307.5" cy="625.5" r="7.5" fill="#6DD6D3"/>
<circle cx="7.5" cy="655.5" r="7.5" fill="#6DD6D3"/>
<circle cx="37.5" cy="655.5" r="7.5" fill="#6DD6D3"/>
<circle cx="67.5" cy="655.5" r="7.5" fill="#6DD6D3"/>
<circle cx="97.5" cy="655.5" r="7.5" fill="#6DD6D3"/>
<circle cx="127.5" cy="655.5" r="7.5" fill="#6DD6D3"/>
<circle cx="157.5" cy="655.5" r="7.5" fill="#6DD6D3"/>
<circle cx="187.5" cy="655.5" r="7.5" fill="#6DD6D3"/>
<circle cx="217.5" cy="655.5" r="7.5" fill="#6DD6D3"/>
<circle cx="247.5" cy="655.5" r="7.5" fill="#6DD6D3"/>
<circle cx="277.5" cy="655.5" r="7.5" fill="#6DD6D3"/>
<circle cx="307.5" cy="655.5" r="7.5" fill="#6DD6D3"/>
<circle cx="689.5" cy="3.5" r="267" stroke="#EEDEBB" stroke-width="3"/>
</svg>
