<svg width="48" height="48" viewBox="0 0 48 48" fill="none" xmlns="http://www.w3.org/2000/svg">
<path d="M4.40813 47.25C12.7524 47.25 19.5 40.6927 19.5 32.625C19.5 24.5573 12.7334 18 4.40813 18H1.5V47.25H4.40813Z" fill="#6DD6D3"/>
<path d="M9.55117 16.1023C13.9977 16.1023 17.6023 12.4977 17.6023 8.05117C17.6023 3.60463 13.9977 0 9.55117 0C5.10463 0 1.5 3.60463 1.5 8.05117C1.5 12.4977 5.10463 16.1023 9.55117 16.1023Z" fill="#F18A00"/>
<path d="M45.75 29.9108C45.75 24.1675 40.8743 19.5 34.875 19.5C28.8757 19.5 24 24.1675 24 29.9108V47.25H45.75V29.9108Z" fill="#F18A00"/>
<path d="M34.6723 16.1023C39.1188 16.1023 42.7234 12.4977 42.7234 8.05117C42.7234 3.60463 39.1188 0 34.6723 0C30.2257 0 26.6211 3.60463 26.6211 8.05117C26.6211 12.4977 30.2257 16.1023 34.6723 16.1023Z" fill="#3C585F"/>
</svg>
