<svg width="49" height="48" viewBox="0 0 49 48" fill="none" xmlns="http://www.w3.org/2000/svg">
<path d="M6.33398 30C6.33398 28.3431 7.67713 27 9.33398 27H18.334C19.9908 27 21.334 28.3431 21.334 30V39C21.334 40.6569 19.9908 42 18.334 42H9.33398C7.67713 42 6.33398 40.6569 6.33398 39V30Z" fill="#3C585F"/>
<path d="M4.83398 12C4.83398 10.3431 6.17713 9 7.83398 9H18.334C19.9908 9 21.334 10.3431 21.334 12V22.5C21.334 24.1569 19.9908 25.5 18.334 25.5H7.83398C6.17713 25.5 4.83398 24.1569 4.83398 22.5V12Z" fill="#6DD6D3"/>
<path d="M22.834 30C22.834 28.3431 24.1771 27 25.834 27H36.334C37.9908 27 39.334 28.3431 39.334 30V40.5C39.334 42.1569 37.9908 43.5 36.334 43.5H25.834C24.1771 43.5 22.834 42.1569 22.834 40.5V30Z" fill="#6DD6D3"/>
<path d="M22.834 7.5C22.834 5.84315 24.1771 4.5 25.834 4.5H40.834C42.4908 4.5 43.834 5.84315 43.834 7.5V22.5C43.834 24.1569 42.4908 25.5 40.834 25.5H25.834C24.1771 25.5 22.834 24.1569 22.834 22.5V7.5Z" fill="#F18A00"/>
</svg>
