<svg width="32" height="32" viewBox="0 0 32 32" fill="none" xmlns="http://www.w3.org/2000/svg">
<path fill-rule="evenodd" clip-rule="evenodd" d="M16 0C7.16344 0 0 7.16344 0 16C0 24.8366 7.16344 32 16 32C24.8366 32 32 24.8366 32 16C32 7.16344 24.8366 0 16 0ZM8.74609 10.5068L10.4531 12.2139C10.6016 12.3623 10.8613 12.4736 11.084 12.4736C11.3066 12.4736 11.5293 12.3623 11.7148 12.2139C12.0488 11.8428 12.0488 11.2861 11.7148 10.9521L10.0078 9.24512C9.67383 8.91113 9.11719 8.91113 8.74609 9.24512C8.41211 9.61621 8.41211 10.1729 8.74609 10.5068ZM14.6094 9.72754C14.6094 10.2471 14.9805 10.6182 15.5 10.6182C15.9824 10.6182 16.3906 10.2471 16.3906 9.72754V7.35254C16.3906 6.87012 15.9824 6.46191 15.5 6.46191C14.9805 6.46191 14.6094 6.87012 14.6094 7.35254V9.72754ZM9.26562 16.8525C9.74805 16.8525 10.1562 16.4814 10.1562 15.9619C10.1562 15.4795 9.74805 15.0713 9.26562 15.0713H6.89062C6.37109 15.0713 6 15.4795 6 15.9619C6 16.4814 6.37109 16.8525 6.89062 16.8525H9.26562ZM19.248 12.2139C19.4336 12.3623 19.6562 12.4736 19.8789 12.4736C20.1016 12.4736 20.3613 12.3623 20.5098 12.2139L22.2168 10.5068C22.5508 10.1729 22.5508 9.61621 22.2168 9.24512C21.8457 8.91113 21.2891 8.91113 20.9551 9.24512L19.248 10.9521C18.9141 11.2861 18.9141 11.8428 19.248 12.2139ZM16.3906 22.1963C16.3906 21.7139 15.9824 21.3057 15.5 21.3057C14.9805 21.3057 14.6094 21.7139 14.6094 22.1963V24.5713C14.6094 25.0908 14.9805 25.4619 15.5 25.4619C15.9824 25.4619 16.3906 25.0908 16.3906 24.5713V22.1963ZM11.7148 19.7471C11.3438 19.4131 10.7871 19.4131 10.4531 19.7471L8.74609 21.4541C8.41211 21.7881 8.41211 22.3447 8.74609 22.7158C8.93164 22.8643 9.1543 22.9756 9.37695 22.9756C9.63672 22.9756 9.85938 22.8643 10.0078 22.7158L11.7148 21.0088C12.0488 20.6748 12.0488 20.1182 11.7148 19.7471ZM25 15.9619C25 15.4795 24.5918 15.0713 24.1094 15.0713H21.7344C21.2148 15.0713 20.8438 15.4795 20.8438 15.9619C20.8438 16.4814 21.2148 16.8525 21.7344 16.8525H24.1094C24.5918 16.8525 25 16.4814 25 15.9619ZM22.2168 21.4541L20.5098 19.7471C20.1758 19.4131 19.6191 19.4131 19.248 19.7471C18.9141 20.1182 18.9141 20.6748 19.248 21.0088L20.9551 22.7158C21.1035 22.8643 21.3262 22.9756 21.5859 22.9756C21.8086 22.9756 22.0312 22.8643 22.2168 22.7158C22.5508 22.3447 22.5508 21.7881 22.2168 21.4541ZM19.6562 15.9619C19.6562 13.6982 17.7637 11.8057 15.5 11.8057C13.1992 11.8057 11.3438 13.6982 11.3438 15.9619C11.3438 18.2627 13.1992 20.1182 15.5 20.1182C17.7637 20.1182 19.6562 18.2627 19.6562 15.9619Z" fill="#FFFFFF"/>
</svg>
