<svg width="32" height="32" viewBox="0 0 32 32" fill="none" xmlns="http://www.w3.org/2000/svg">
<path fill-rule="evenodd" clip-rule="evenodd" d="M16 0C7.16344 0 0 7.16344 0 16C0 24.8366 7.16344 32 16 32C24.8366 32 32 24.8366 32 16C32 7.16344 24.8366 0 16 0ZM16.4919 7C11.2564 7 7 11.2835 7 16.5C7 21.7589 11.2564 26 16.4919 26C19.4288 26 22.1104 24.6853 23.8981 22.5223C24.1535 22.183 23.8981 21.7165 23.4725 21.8013C18.8329 22.6496 14.619 19.1295 14.619 14.4643C14.619 11.7924 16.0662 9.33259 18.3647 8.01786C18.7478 7.8058 18.6627 7.25446 18.237 7.16964C17.7688 7.08482 17.0027 7 16.4919 7Z" fill="white"/>
</svg>
