<svg width="189" height="308" viewBox="0 0 189 308" fill="none" xmlns="http://www.w3.org/2000/svg">
<g clip-path="url(#clip0_1134_6178)">
<circle cx="183" cy="143.5" r="127.5" stroke="white" stroke-width="2"/>
<circle cx="183" cy="143.5" r="89.5" stroke="white" stroke-width="2"/>
<circle cx="13.5" cy="84.5" r="7.5" fill="#F18A00"/>
<circle cx="43.5" cy="84.5" r="7.5" fill="#F18A00"/>
<circle cx="73.5" cy="84.5" r="7.5" fill="#F18A00"/>
<circle cx="103.5" cy="84.5" r="7.5" fill="#F18A00"/>
<circle cx="133.5" cy="84.5" r="7.5" fill="#F18A00"/>
<circle cx="13.5" cy="114.5" r="7.5" fill="#F18A00"/>
<circle cx="43.5" cy="114.5" r="7.5" fill="#F18A00"/>
<circle cx="73.5" cy="114.5" r="7.5" fill="#F18A00"/>
<circle cx="103.5" cy="114.5" r="7.5" fill="#F18A00"/>
<circle cx="133.5" cy="114.5" r="7.5" fill="#F18A00"/>
<circle cx="13.5" cy="144.5" r="7.5" fill="#F18A00"/>
<circle cx="43.5" cy="144.5" r="7.5" fill="#F18A00"/>
<circle cx="73.5" cy="144.5" r="7.5" fill="#F18A00"/>
<circle cx="103.5" cy="144.5" r="7.5" fill="#F18A00"/>
<circle cx="133.5" cy="144.5" r="7.5" fill="#F18A00"/>
<circle cx="13.5" cy="174.5" r="7.5" fill="#F18A00"/>
<circle cx="43.5" cy="174.5" r="7.5" fill="#F18A00"/>
<circle cx="73.5" cy="174.5" r="7.5" fill="#F18A00"/>
<circle cx="103.5" cy="174.5" r="7.5" fill="#F18A00"/>
<circle cx="133.5" cy="174.5" r="7.5" fill="#F18A00"/>
<circle cx="13.5" cy="204.5" r="7.5" fill="#F18A00"/>
<circle cx="43.5" cy="204.5" r="7.5" fill="#F18A00"/>
<circle cx="73.5" cy="204.5" r="7.5" fill="#F18A00"/>
<circle cx="103.5" cy="204.5" r="7.5" fill="#F18A00"/>
<circle cx="133.5" cy="204.5" r="7.5" fill="#F18A00"/>
</g>
<defs>
<clipPath id="clip0_1134_6178">
<rect width="191" height="308" fill="white"/>
</clipPath>
</defs>
</svg>
