<svg width="74" height="121" viewBox="0 0 74 121" fill="none" xmlns="http://www.w3.org/2000/svg">
<g clip-path="url(#clip0_1204_5831)">
<circle cx="71.6675" cy="56.4813" r="49.5833" stroke="white" stroke-width="0.777778"/>
<circle cx="71.6671" cy="56.4813" r="34.8056" stroke="white" stroke-width="0.777778"/>
<g clip-path="url(#clip1_1204_5831)">
<circle cx="5.75065" cy="33.5368" r="2.91667" fill="#F18A00"/>
<circle cx="17.4167" cy="33.5368" r="2.91667" fill="#F18A00"/>
<circle cx="29.0846" cy="33.5368" r="2.91667" fill="#F18A00"/>
<circle cx="40.7507" cy="33.5368" r="2.91667" fill="#F18A00"/>
<circle cx="52.4167" cy="33.5368" r="2.91667" fill="#F18A00"/>
<circle cx="5.75065" cy="48.37" r="2.91667" fill="#F18A00"/>
<circle cx="17.4167" cy="48.37" r="2.91667" fill="#F18A00"/>
<circle cx="29.0846" cy="48.37" r="2.91667" fill="#F18A00"/>
<circle cx="40.7507" cy="48.37" r="2.91667" fill="#F18A00"/>
<circle cx="52.4167" cy="48.37" r="2.91667" fill="#F18A00"/>
<circle cx="5.75065" cy="63.2035" r="2.91667" fill="#F18A00"/>
<circle cx="17.4167" cy="63.2035" r="2.91667" fill="#F18A00"/>
<circle cx="29.0846" cy="63.2035" r="2.91667" fill="#F18A00"/>
<circle cx="40.7507" cy="63.2035" r="2.91667" fill="#F18A00"/>
<circle cx="52.4167" cy="63.2035" r="2.91667" fill="#F18A00"/>
<circle cx="5.75065" cy="78.0368" r="2.91667" fill="#F18A00"/>
<circle cx="17.4167" cy="78.0368" r="2.91667" fill="#F18A00"/>
<circle cx="29.0846" cy="78.0368" r="2.91667" fill="#F18A00"/>
<circle cx="40.7507" cy="78.0368" r="2.91667" fill="#F18A00"/>
<circle cx="52.4167" cy="78.0368" r="2.91667" fill="#F18A00"/>
</g>
</g>
<defs>
<clipPath id="clip0_1204_5831">
<rect width="74.2778" height="119.778" fill="white" transform="translate(0.5 0.675781)"/>
</clipPath>
<clipPath id="clip1_1204_5831">
<rect width="123.278" height="51.7222" fill="white" transform="translate(-67.166 30.6201)"/>
</clipPath>
</defs>
</svg>
