<svg width="416" height="314" viewBox="0 0 416 314" fill="none" xmlns="http://www.w3.org/2000/svg">
<g clip-path="url(#clip0_1163_4200)">
<circle cx="213.5" cy="213.5" r="178.5" transform="matrix(-1 0 0 1 629 -107.693)" stroke="#2D2D2D" stroke-width="70"/>
<circle cx="130.076" cy="78.3824" r="10.0758" fill="#F18A00"/>
<circle cx="168.228" cy="78.3824" r="10.0758" fill="#F18A00"/>
<circle cx="206.378" cy="78.3824" r="10.0758" fill="#F18A00"/>
<circle cx="244.531" cy="78.3824" r="10.0758" fill="#F18A00"/>
<circle cx="282.681" cy="78.3824" r="10.0758" fill="#F18A00"/>
<circle cx="130.076" cy="116.534" r="10.0758" fill="#F18A00"/>
<circle cx="168.228" cy="116.534" r="10.0758" fill="#F18A00"/>
<circle cx="206.378" cy="116.534" r="10.0758" fill="#F18A00"/>
<circle cx="244.531" cy="116.534" r="10.0758" fill="#F18A00"/>
<circle cx="282.681" cy="116.534" r="10.0758" fill="#F18A00"/>
<circle cx="130.076" cy="154.685" r="10.0758" fill="#F18A00"/>
<circle cx="168.228" cy="154.685" r="10.0758" fill="#F18A00"/>
<circle cx="206.378" cy="154.685" r="10.0758" fill="#F18A00"/>
<circle cx="244.531" cy="154.685" r="10.0758" fill="#F18A00"/>
<circle cx="282.681" cy="154.685" r="10.0758" fill="#F18A00"/>
<circle cx="130.076" cy="192.837" r="10.0758" fill="#F18A00"/>
<circle cx="168.228" cy="192.837" r="10.0758" fill="#F18A00"/>
<circle cx="206.378" cy="192.837" r="10.0758" fill="#F18A00"/>
<circle cx="244.531" cy="192.837" r="10.0758" fill="#F18A00"/>
<circle cx="282.681" cy="192.837" r="10.0758" fill="#F18A00"/>
</g>
<defs>
<clipPath id="clip0_1163_4200">
<rect width="421" height="437" fill="white" transform="matrix(-1 0 0 1 416 -123.693)"/>
</clipPath>
</defs>
</svg>
