<svg width="101" height="67" viewBox="0 0 101 67" fill="none" xmlns="http://www.w3.org/2000/svg">
<path d="M11.3 43.7999C11.3 47.5999 12.1 50.4999 13.2 52.2999C14.6 54.5999 16.8 55.5999 19 55.5999C21.8 55.5999 24.4 54.8999 29.4 47.9999C33.4 42.4999 38.1 34.7999 41.2 29.8999L46.5 21.6999C50.2 15.9999 54.5 9.6999 59.4 5.3999C63.4 1.8999 67.8 -0.100098 72.1 -0.100098C79.5 -9.76548e-05 86.5 4.1999 91.8 12.1999C97.6 20.8999 100.5 31.8999 100.5 43.1999C100.5 49.8999 99.2 54.8999 96.9 58.7999C94.7 62.5999 90.5 66.3999 83.3 66.3999V55.5999C89.4 55.5999 91 49.9999 91 43.4999C91 34.2999 88.9 24.0999 84.1 16.7999C80.8 11.5999 76.4 8.4999 71.6 8.4999C66.4 8.4999 62.3 12.3999 57.6 19.2999C55.1 22.9999 52.6 27.4999 49.7 32.5999L46.5 38.1999C40.3 49.4999 38.7 51.9999 35.5 56.1999C30 63.5999 25.2 66.3999 19 66.3999C11.6 66.3999 6.9 63.1999 4 58.3999C1.7 54.4999 0.5 49.2999 0.5 43.3999L11.3 43.7999Z" fill="#686868"/>
<path d="M9 13C14 5.4 21.1 0 29.3 0C34 0 38.8 1.4 43.7 5.4C49.1 9.8 54.8 17 62 29L64.6 33.3C70.8 43.6 74.3 49 76.4 51.5C79.1 54.7 80.9 55.7 83.3 55.7C89.4 55.7 91 50.1 91 43.6L100.5 43.3C100.5 50 99.2 55 96.9 58.9C94.7 62.7 90.5 66.5 83.3 66.5C78.8 66.5 74.9 65.5 70.5 61.4C67.1 58.2 63.2 52.6 60.2 47.6L51.2 32.6C46.7 25.1 42.6 19.5 40.2 16.9C37.6 14.2 34.3 10.9 29.1 10.9C24.8 10.9 21.2 13.9 18.2 18.5L9 13Z" fill="url(#paint0_linear_1088_4061)"/>
<path d="M29.1 10.9C24.8 10.9 21.2 13.9 18.2 18.5C13.9 25 11.3 34.6 11.3 43.9C11.3 47.7 12.1 50.6 13.2 52.4L4 58.5C1.7 54.5 0.5 49.3 0.5 43.4C0.5 32.7 3.4 21.6 9 13C14 5.4 21.1 0 29.3 0L29.1 10.9Z" fill="url(#paint1_linear_1088_4061)"/>
<defs>
<linearGradient id="paint0_linear_1088_4061" x1="1461.01" y1="104.161" x2="8338.33" y2="451.511" gradientUnits="userSpaceOnUse">
<stop stop-color="#545454"/>
<stop offset="0.4" stop-color="#545454"/>
<stop offset="0.83" stop-color="#5E5E5E"/>
<stop offset="1" stop-color="#686868"/>
</linearGradient>
<linearGradient id="paint1_linear_1088_4061" x1="14.9057" y1="4833.76" x2="14.9057" y2="2295.19" gradientUnits="userSpaceOnUse">
<stop stop-color="#686868"/>
<stop offset="1" stop-color="#545454"/>
</linearGradient>
</defs>
</svg>
