<svg width="100" height="70" viewBox="0 0 100 70" fill="none" xmlns="http://www.w3.org/2000/svg">
<mask id="mask0_1088_4069" style="mask-type:luminance" maskUnits="userSpaceOnUse" x="0" y="0" width="100" height="70">
<path d="M0.0214844 0.183105H99.6552V69.7802H0.0214844V0.183105Z" fill="white"/>
</mask>
<g mask="url(#mask0_1088_4069)">
<path fill-rule="evenodd" clip-rule="evenodd" d="M41.392 7.80215C44.6081 4.45416 49.0843 2.3809 54.0293 2.3809C60.6227 2.3809 66.337 6.04391 69.4139 11.5018C72.1452 10.2808 75.1035 9.65045 78.0953 9.65197C89.9634 9.65197 99.5971 19.3589 99.5971 31.3369C99.5971 43.315 89.9634 53.0219 78.0953 53.0219C76.6447 53.0219 75.2308 52.8761 73.8462 52.6007C71.1539 57.3992 66.0073 60.6593 60.1465 60.6593C57.7604 60.664 55.4048 60.1227 53.2601 59.0769C50.5312 65.4871 44.1758 69.9926 36.7766 69.9926C29.0476 69.9926 22.4909 65.1208 19.9634 58.271C18.8385 58.5084 17.6918 58.6277 16.5421 58.6271C7.34801 58.6271 -0.0878906 51.0813 -0.0878906 41.8139C-0.0878906 35.5868 3.26009 30.1655 8.22713 27.2351C7.17337 24.8076 6.63096 22.1891 6.63372 19.5428C6.63372 8.84684 15.315 0.202148 26.011 0.202148C32.2747 0.202148 37.8791 3.1875 41.3956 7.8212" fill="#838383"/>
</g>
<path fill-rule="evenodd" clip-rule="evenodd" d="M14.4309 36.3738C14.3682 36.5372 14.4532 36.5712 14.4733 36.6002C14.6605 36.7357 14.8506 36.8339 15.0411 36.9441C16.0594 37.4826 17.0191 37.6401 18.0228 37.6401C20.0668 37.6401 21.3378 36.5522 21.3378 34.8013V34.7669C21.3378 33.1478 19.9019 32.5581 18.5613 32.1368L18.3858 32.08C17.3712 31.7511 16.4957 31.4647 16.4957 30.798V30.7639C16.4957 30.1925 17.0085 29.7713 17.7997 29.7713C18.6788 29.7713 19.7265 30.0639 20.3968 30.4343C20.3968 30.4343 20.5953 30.5625 20.6675 30.3709C20.7067 30.2672 21.0484 29.3526 21.0851 29.25C21.1239 29.1427 21.0558 29.0617 20.9858 29.02C20.2166 28.5511 19.1543 28.2324 18.0554 28.2324L17.8514 28.2332C15.9796 28.2332 14.6719 29.365 14.6719 30.9841V31.0189C14.6719 32.7258 16.1151 33.2826 17.4631 33.6672L17.6799 33.7346C18.6616 34.0365 19.5114 34.2987 19.5114 34.9874V35.0218C19.5114 35.6555 18.9583 36.128 18.0719 36.128C17.7272 36.128 16.6287 36.1222 15.4382 35.3698C15.2942 35.2859 15.2122 35.2255 15.1012 35.1577C15.0426 35.1222 14.8961 35.0581 14.8323 35.25L14.4294 36.3709M44.3561 36.3709C44.2935 36.5343 44.3785 36.5683 44.3994 36.5973C44.5858 36.7328 44.7766 36.831 44.9671 36.9412C45.9854 37.4797 46.9451 37.6372 47.9488 37.6372C49.9928 37.6372 51.2638 36.5493 51.2638 34.7984V34.7639C51.2638 33.1449 49.8316 32.5551 48.4873 32.1339L48.3118 32.0771C47.2972 31.7482 46.4217 31.4617 46.4217 30.7951V30.761C46.4217 30.1896 46.9345 29.7683 47.7257 29.7683C48.6048 29.7683 49.6488 30.061 50.3228 30.4313C50.3228 30.4313 50.5213 30.5595 50.5939 30.368C50.6327 30.2643 50.9748 29.3496 51.0078 29.2471C51.047 29.1397 50.9785 29.0588 50.9089 29.017C50.1396 28.5482 49.0774 28.2295 47.9785 28.2295L47.7741 28.2302C45.9023 28.2302 44.5946 29.3621 44.5946 30.9811V31.0159C44.5946 32.7229 46.0378 33.2797 47.3858 33.6643L47.6023 33.7317C48.5876 34.0335 49.4338 34.2958 49.4338 34.9844V35.0189C49.4338 35.6526 48.8807 36.1251 47.9942 36.1251C47.6488 36.1251 46.5473 36.1192 45.3605 35.3669C45.2166 35.283 45.1323 35.2251 45.0232 35.1548C44.9862 35.1313 44.8136 35.0639 44.7547 35.2471L44.3517 36.368M64.7913 32.9394C64.7913 33.9284 64.6067 34.7086 64.2455 35.2617C63.8851 35.8075 63.3408 36.0749 62.5825 36.0749C61.8243 36.0749 61.2821 35.8097 60.9268 35.2654C60.569 34.7159 60.3884 33.9321 60.3884 32.943C60.3884 31.954 60.57 31.1775 60.9268 30.6317C61.2814 30.0896 61.8206 29.8295 62.5825 29.8295C63.3444 29.8295 63.8865 30.0921 64.2455 30.6317C64.6089 31.1775 64.7913 31.954 64.7913 32.943M66.4983 31.1079C66.3301 30.5401 66.0697 30.0419 65.7217 29.6244C65.3733 29.2068 64.9342 28.8698 64.4103 28.628C63.8902 28.3844 63.2748 28.2617 62.5788 28.2617C61.8829 28.2617 61.2711 28.3852 60.7473 28.628C60.2272 28.8712 59.784 29.2068 59.436 29.6244C59.0887 30.0419 58.8279 30.5401 58.6594 31.1079C58.4928 31.672 58.4081 32.2874 58.4081 32.943C58.4081 33.5987 58.4928 34.2141 58.6594 34.7782C58.8268 35.346 59.088 35.8441 59.436 36.2617C59.7843 36.6793 60.2272 37.0126 60.7473 37.2507C61.2711 37.4881 61.8865 37.609 62.5788 37.609C63.2712 37.609 63.8865 37.4881 64.4067 37.2507C64.9268 37.0134 65.3701 36.6793 65.718 36.2617C66.0657 35.8441 66.3261 35.346 66.4946 34.7782C66.6609 34.2141 66.7455 33.5987 66.7455 32.943C66.7455 32.291 66.6609 31.672 66.4946 31.1079M80.5239 35.7965C80.4679 35.6306 80.306 35.6932 80.306 35.6932C80.058 35.7881 79.7931 35.876 79.5111 35.92C79.2268 35.9647 78.9103 35.987 78.577 35.987C77.7528 35.987 77.0935 35.7412 76.6246 35.2544C76.1521 34.7672 75.8884 33.9833 75.892 32.9211C75.8946 31.954 76.1283 31.2288 76.5477 30.672C76.9616 30.1225 77.599 29.8368 78.4415 29.8368C79.1448 29.8368 79.6832 29.9185 80.2473 30.0951C80.2473 30.0951 80.381 30.1533 80.4451 29.9771C80.595 29.5632 80.7056 29.2665 80.8664 28.8123C80.9118 28.6822 80.8005 28.6273 80.7598 28.6115C80.5386 28.5251 80.0162 28.3833 79.6206 28.3236C79.2506 28.2672 78.8221 28.2379 78.3386 28.2379C77.6206 28.2379 76.9832 28.3606 76.4375 28.6038C75.8917 28.8467 75.4301 29.1826 75.0638 29.6002C74.6975 30.0178 74.4191 30.5159 74.2323 31.0837C74.0473 31.6478 73.9539 32.2669 73.9539 32.9225C73.9539 34.3365 74.3349 35.483 75.0895 36.3218C75.844 37.1643 76.9796 37.5892 78.4594 37.5892C79.3349 37.5892 80.2323 37.4123 80.877 37.157C80.877 37.157 81.0001 37.0976 80.9466 36.954L80.5254 35.7965M83.5107 31.987C83.5924 31.4375 83.743 30.9797 83.9796 30.6244C84.3338 30.0822 84.8734 29.7855 85.6316 29.7855C86.3898 29.7855 86.8917 30.0837 87.2506 30.6244C87.4887 30.9815 87.5928 31.4559 87.6316 31.987L83.4924 31.9863L83.5107 31.987ZM89.2616 30.7782C89.1162 30.2324 88.7561 29.6793 88.5217 29.4266C88.1481 29.0273 87.7854 28.7452 87.4228 28.5914C86.8993 28.3688 86.336 28.2545 85.7671 28.2555C85.0455 28.2555 84.3898 28.3775 83.8587 28.6255C83.3276 28.8753 82.8807 29.2152 82.529 29.6401C82.1777 30.065 81.9136 30.5669 81.7451 31.1419C81.5766 31.7097 81.4917 32.3324 81.4917 32.9844C81.4917 33.6511 81.5799 34.2702 81.7536 34.8306C81.929 35.3947 82.2114 35.8892 82.5924 36.2995C82.9734 36.7134 83.4605 37.0357 84.0466 37.2628C84.629 37.4881 85.336 37.6049 86.1455 37.6024C87.8158 37.5969 88.695 37.2251 89.0539 37.0236C89.118 36.9877 89.1785 36.9258 89.103 36.7474L88.7257 35.6888C88.6679 35.531 88.5081 35.5881 88.5081 35.5881C88.0942 35.7427 87.5081 36.0203 86.1345 36.0167C85.2371 36.0152 84.5741 35.7504 84.1565 35.3354C83.7316 34.9104 83.5191 34.2914 83.4862 33.4123L89.2737 33.4167C89.2737 33.4167 89.4261 33.4152 89.4418 33.2665C89.4481 33.2049 89.64 32.0797 89.2693 30.7793L89.2616 30.7782ZM37.247 31.987C37.3287 31.4375 37.4796 30.9797 37.7158 30.6244C38.0704 30.0822 38.6096 29.7855 39.3679 29.7855C40.1261 29.7855 40.6279 30.0837 40.9869 30.6244C41.2246 30.9815 41.3287 31.4559 41.3679 31.987L37.2287 31.9863L37.247 31.987ZM42.9979 30.7782C42.8528 30.2324 42.4924 29.6793 42.258 29.4266C41.8843 29.0273 41.5217 28.7452 41.1591 28.5914C40.6355 28.3688 40.0723 28.2545 39.5034 28.2555C38.7818 28.2555 38.1261 28.3775 37.595 28.6255C37.0638 28.8753 36.6169 29.2152 36.2653 29.6401C35.9147 30.065 35.6499 30.5669 35.4814 31.1419C35.3133 31.7097 35.2287 32.3324 35.2287 32.9844C35.2287 33.6511 35.3162 34.2702 35.4909 34.8306C35.666 35.3947 35.9488 35.8892 36.3261 36.2995C36.7071 36.7134 37.1942 37.0357 37.7803 37.2628C38.3627 37.4881 39.066 37.6049 39.8792 37.6024C41.5495 37.5969 42.4287 37.2251 42.7876 37.0236C42.8514 36.9877 42.9122 36.9258 42.8364 36.7474L42.4591 35.6888C42.4008 35.531 42.2411 35.5881 42.2411 35.5881C41.8272 35.7427 41.2411 36.0203 39.8675 36.0167C38.9737 36.0152 38.307 35.7504 37.8895 35.3354C37.4646 34.9104 37.2521 34.2914 37.2191 33.4123L43.0067 33.4167C43.0067 33.4167 43.1591 33.4152 43.1748 33.2665C43.181 33.2049 43.373 32.0797 43.0019 30.7793L42.9979 30.7782ZM24.7561 35.7599C24.5294 35.5789 24.4979 35.5346 24.4228 35.417C24.3081 35.2401 24.2495 34.9885 24.2495 34.6661C24.2495 34.1606 24.418 33.7943 24.766 33.5489C24.7624 33.5496 25.2642 33.1167 26.4437 33.1313C26.9687 33.1407 27.4924 33.1854 28.0114 33.265V35.8914H28.0122C28.0122 35.8914 27.2796 36.0493 26.4517 36.0991C25.2759 36.1698 24.7558 35.7606 24.7594 35.7617L24.7561 35.7599ZM27.0565 31.694C26.8221 31.6767 26.518 31.6683 26.1554 31.6683C25.6609 31.6683 25.181 31.7299 24.7342 31.8507C24.2836 31.9723 23.877 32.1606 23.529 32.4112C23.1801 32.6601 22.8931 32.986 22.6902 33.3636C22.4854 33.7445 22.381 34.1914 22.381 34.6969C22.381 35.2097 22.4701 35.6529 22.6459 36.0156C22.8182 36.3753 23.0775 36.6863 23.4005 36.9203C23.7217 37.154 24.1184 37.3269 24.5763 37.4295C25.0305 37.5332 25.5433 37.5855 26.1074 37.5855C26.7008 37.5855 27.2906 37.5357 27.862 37.4394C28.3487 37.3554 28.8335 37.2612 29.3162 37.1566C29.5089 37.1123 29.7228 37.054 29.7228 37.054C29.8657 37.0178 29.8547 36.865 29.8547 36.865L29.8514 31.5903C29.8514 30.4328 29.5422 29.572 28.932 29.0408C28.3239 28.5097 27.4338 28.2423 26.2799 28.2423C25.8477 28.2423 25.1481 28.3009 24.7305 28.3848C24.7305 28.3848 23.4704 28.6295 22.9503 29.0368C22.9503 29.0368 22.836 29.1071 22.8983 29.2665L23.3085 30.3654C23.3594 30.5079 23.4983 30.4592 23.4983 30.4592C23.4983 30.4592 23.5418 30.4419 23.5931 30.4115C24.703 29.8071 26.1096 29.8255 26.1096 29.8255C26.7323 29.8255 27.2158 29.9518 27.5382 30.1991C27.8536 30.4412 28.0144 30.8071 28.0144 31.5764V31.8207C27.5199 31.7489 27.062 31.7075 27.062 31.7075L27.0565 31.694ZM73.5766 28.7159C73.585 28.6966 73.5893 28.6758 73.5895 28.6548C73.5896 28.6338 73.5855 28.6129 73.5774 28.5935C73.5693 28.5741 73.5573 28.5565 73.5423 28.5418C73.5273 28.5271 73.5094 28.5155 73.4898 28.5079C73.3913 28.4705 72.9001 28.3669 72.5228 28.3434C71.7975 28.298 71.3946 28.4203 71.032 28.583C70.6737 28.7445 70.2774 29.0042 70.0576 29.3046L70.0569 28.6013C70.0569 28.5046 69.9884 28.4266 69.8909 28.4266H68.4111C68.3151 28.4266 68.2455 28.5046 68.2455 28.6013V37.2093C68.2456 37.2558 68.2641 37.3004 68.297 37.3333C68.3299 37.3662 68.3745 37.3847 68.421 37.3848H69.9375C69.9839 37.3847 70.0285 37.3662 70.0613 37.3333C70.0941 37.3004 70.1125 37.2558 70.1125 37.2093V32.887C70.1125 32.3082 70.1763 31.7332 70.3034 31.3705C70.4287 31.0119 70.599 30.7258 70.8089 30.5207C71.0091 30.3226 71.2541 30.1756 71.5232 30.0921C71.7757 30.0197 72.037 29.9829 72.2997 29.983C72.6019 29.983 72.9334 30.0606 72.9334 30.0606C73.0448 30.0731 73.1067 30.0049 73.1444 29.9046C73.2437 29.6405 73.5254 28.8496 73.5803 28.6921" fill="#FFFFFE"/>
<path fill-rule="evenodd" clip-rule="evenodd" d="M59.4147 24.743C59.2273 24.6863 59.0366 24.6411 58.8437 24.6075C58.5842 24.5641 58.3214 24.5438 58.0583 24.5467C57.0133 24.5467 56.1894 24.8419 55.6111 25.425C55.0367 26.0038 54.6459 26.8855 54.4499 28.0456L54.3792 28.4371H53.0675C53.0675 28.4371 52.9074 28.4305 52.8737 28.6053L52.6583 29.8067C52.6433 29.9217 52.6927 29.9935 52.8466 29.9928H54.1235L52.8279 37.2247C52.7264 37.8071 52.6103 38.2862 52.4818 38.6492C52.355 39.0075 52.2312 39.276 52.0788 39.4708C51.9312 39.6595 51.7913 39.7983 51.5499 39.8793C51.3506 39.9463 51.1213 39.9771 50.87 39.9771C50.7301 39.9771 50.544 39.9536 50.4067 39.9261C50.2693 39.899 50.1979 39.8683 50.0949 39.825C50.0949 39.825 49.9451 39.7679 49.8861 39.9181C49.8382 40.0408 49.4979 40.9767 49.4576 41.0924C49.4165 41.2067 49.4741 41.2968 49.5466 41.3228C49.7165 41.3836 49.8429 41.4225 50.0744 41.4771C50.396 41.5529 50.6671 41.5576 50.9209 41.5576C51.4528 41.5576 51.9374 41.4829 52.3393 41.3379C52.7437 41.1917 53.0957 40.9371 53.407 40.5924C53.7437 40.2206 53.9554 39.8313 54.1579 39.3001C54.3583 38.7738 54.529 38.1203 54.6656 37.3587L55.9675 29.9928H57.8708C57.8708 29.9928 58.0312 29.9987 58.0645 29.8247L58.2799 28.6232C58.2949 28.5082 58.2459 28.4364 58.0913 28.4371H56.244C56.2532 28.3954 56.3371 27.7456 56.5492 27.1338C56.6396 26.8727 56.81 26.662 56.9543 26.5173C57.089 26.3795 57.255 26.2763 57.4382 26.2162C57.6389 26.1542 57.8482 26.124 58.0583 26.1269C58.2323 26.1269 58.403 26.1477 58.533 26.1749C58.7122 26.213 58.7817 26.2331 58.8286 26.247C59.0169 26.3045 59.0422 26.2488 59.0792 26.1576L59.5209 24.9445C59.5664 24.814 59.4557 24.7591 59.4147 24.743ZM33.6001 37.2401C33.6001 37.3368 33.5312 37.4155 33.4345 37.4155H31.9023C31.8052 37.4155 31.7363 37.3368 31.7363 37.2401V24.9075C31.7363 24.8111 31.8052 24.7331 31.9023 24.7331H33.4345C33.5312 24.7331 33.6001 24.8111 33.6001 24.9075V37.2401Z" fill="#FFFFFE"/>
</svg>
