<svg width="540" height="425" viewBox="0 0 540 425" fill="none" xmlns="http://www.w3.org/2000/svg">
<g clip-path="url(#clip0_712_124807)">
<g clip-path="url(#clip1_712_124807)">
<circle cx="539.5" cy="44.8066" r="233.5" stroke="#2D2D2D" stroke-width="70"/>
<line x1="124" y1="114.807" x2="396" y2="114.807" stroke="#F18A00" stroke-width="9"/>
<g clip-path="url(#clip2_712_124807)">
<circle cx="396.5" cy="47.8066" r="7.5" transform="rotate(90 396.5 47.8066)" fill="#6DD6D3"/>
<circle cx="396.5" cy="77.8066" r="7.5" transform="rotate(90 396.5 77.8066)" fill="#6DD6D3"/>
<circle cx="396.5" cy="107.807" r="7.5" transform="rotate(90 396.5 107.807)" fill="#6DD6D3"/>
<circle cx="396.5" cy="137.807" r="7.5" transform="rotate(90 396.5 137.807)" fill="#6DD6D3"/>
<circle cx="396.5" cy="167.807" r="7.5" transform="rotate(90 396.5 167.807)" fill="#6DD6D3"/>
<circle cx="396.5" cy="197.807" r="7.5" transform="rotate(90 396.5 197.807)" fill="#6DD6D3"/>
<circle cx="366.5" cy="47.8066" r="7.5" transform="rotate(90 366.5 47.8066)" fill="#6DD6D3"/>
<circle cx="366.5" cy="77.8066" r="7.5" transform="rotate(90 366.5 77.8066)" fill="#6DD6D3"/>
<circle cx="366.5" cy="107.807" r="7.5" transform="rotate(90 366.5 107.807)" fill="#6DD6D3"/>
<circle cx="366.5" cy="137.807" r="7.5" transform="rotate(90 366.5 137.807)" fill="#6DD6D3"/>
<circle cx="366.5" cy="167.807" r="7.5" transform="rotate(90 366.5 167.807)" fill="#6DD6D3"/>
<circle cx="366.5" cy="197.807" r="7.5" transform="rotate(90 366.5 197.807)" fill="#6DD6D3"/>
<circle cx="336.5" cy="47.8066" r="7.5" transform="rotate(90 336.5 47.8066)" fill="#6DD6D3"/>
<circle cx="336.5" cy="77.8066" r="7.5" transform="rotate(90 336.5 77.8066)" fill="#6DD6D3"/>
<circle cx="336.5" cy="107.807" r="7.5" transform="rotate(90 336.5 107.807)" fill="#6DD6D3"/>
<circle cx="336.5" cy="137.807" r="7.5" transform="rotate(90 336.5 137.807)" fill="#6DD6D3"/>
<circle cx="336.5" cy="167.807" r="7.5" transform="rotate(90 336.5 167.807)" fill="#6DD6D3"/>
<circle cx="336.5" cy="197.807" r="7.5" transform="rotate(90 336.5 197.807)" fill="#6DD6D3"/>
<circle cx="306.5" cy="47.8066" r="7.5" transform="rotate(90 306.5 47.8066)" fill="#6DD6D3"/>
<circle cx="306.5" cy="77.8066" r="7.5" transform="rotate(90 306.5 77.8066)" fill="#6DD6D3"/>
<circle cx="306.5" cy="107.807" r="7.5" transform="rotate(90 306.5 107.807)" fill="#6DD6D3"/>
<circle cx="306.5" cy="137.807" r="7.5" transform="rotate(90 306.5 137.807)" fill="#6DD6D3"/>
<circle cx="306.5" cy="167.807" r="7.5" transform="rotate(90 306.5 167.807)" fill="#6DD6D3"/>
<circle cx="306.5" cy="197.807" r="7.5" transform="rotate(90 306.5 197.807)" fill="#6DD6D3"/>
<circle cx="276.5" cy="47.8066" r="7.5" transform="rotate(90 276.5 47.8066)" fill="#6DD6D3"/>
<circle cx="276.5" cy="77.8066" r="7.5" transform="rotate(90 276.5 77.8066)" fill="#6DD6D3"/>
<circle cx="276.5" cy="107.807" r="7.5" transform="rotate(90 276.5 107.807)" fill="#6DD6D3"/>
<circle cx="276.5" cy="137.807" r="7.5" transform="rotate(90 276.5 137.807)" fill="#6DD6D3"/>
<circle cx="276.5" cy="167.807" r="7.5" transform="rotate(90 276.5 167.807)" fill="#6DD6D3"/>
<circle cx="276.5" cy="197.807" r="7.5" transform="rotate(90 276.5 197.807)" fill="#6DD6D3"/>
</g>
</g>
</g>
<defs>
<clipPath id="clip0_712_124807">
<rect width="540" height="425" fill="white"/>
</clipPath>
<clipPath id="clip1_712_124807">
<rect width="421" height="437" fill="white" transform="translate(124 -123.693)"/>
</clipPath>
<clipPath id="clip2_712_124807">
<rect width="172" height="139" fill="white" transform="translate(404 40.3066) rotate(90)"/>
</clipPath>
</defs>
</svg>
