<svg width="210" height="167" viewBox="0 0 210 167" fill="none" xmlns="http://www.w3.org/2000/svg">
<g clip-path="url(#clip0_712_147247)">
<g clip-path="url(#clip1_712_147247)">
<circle cx="209.805" cy="18.2382" r="90.8056" stroke="#2D2D2D" stroke-width="27.2222"/>
<line x1="48.2227" y1="45.4604" x2="154" y2="45.4604" stroke="#F18A00" stroke-width="3.5"/>
<g clip-path="url(#clip2_712_147247)">
<circle cx="154.195" cy="19.4049" r="2.91667" transform="rotate(90 154.195 19.4049)" fill="#6DD6D3"/>
<circle cx="154.195" cy="31.0717" r="2.91667" transform="rotate(90 154.195 31.0717)" fill="#6DD6D3"/>
<circle cx="154.195" cy="42.7382" r="2.91667" transform="rotate(90 154.195 42.7382)" fill="#6DD6D3"/>
<circle cx="154.195" cy="54.4049" r="2.91667" transform="rotate(90 154.195 54.4049)" fill="#6DD6D3"/>
<circle cx="154.195" cy="66.0717" r="2.91667" transform="rotate(90 154.195 66.0717)" fill="#6DD6D3"/>
<circle cx="154.195" cy="77.7382" r="2.91667" transform="rotate(90 154.195 77.7382)" fill="#6DD6D3"/>
<circle cx="133.361" cy="19.4049" r="2.91667" transform="rotate(90 133.361 19.4049)" fill="#6DD6D3"/>
<circle cx="133.361" cy="31.0717" r="2.91667" transform="rotate(90 133.361 31.0717)" fill="#6DD6D3"/>
<circle cx="133.361" cy="42.7382" r="2.91667" transform="rotate(90 133.361 42.7382)" fill="#6DD6D3"/>
<circle cx="133.361" cy="54.4049" r="2.91667" transform="rotate(90 133.361 54.4049)" fill="#6DD6D3"/>
<circle cx="133.361" cy="66.0717" r="2.91667" transform="rotate(90 133.361 66.0717)" fill="#6DD6D3"/>
<circle cx="133.361" cy="77.7382" r="2.91667" transform="rotate(90 133.361 77.7382)" fill="#6DD6D3"/>
<circle cx="112.529" cy="19.4049" r="2.91667" transform="rotate(90 112.529 19.4049)" fill="#6DD6D3"/>
<circle cx="112.529" cy="31.0717" r="2.91667" transform="rotate(90 112.529 31.0717)" fill="#6DD6D3"/>
<circle cx="112.529" cy="42.7382" r="2.91667" transform="rotate(90 112.529 42.7382)" fill="#6DD6D3"/>
<circle cx="112.529" cy="54.4049" r="2.91667" transform="rotate(90 112.529 54.4049)" fill="#6DD6D3"/>
<circle cx="112.529" cy="66.0717" r="2.91667" transform="rotate(90 112.529 66.0717)" fill="#6DD6D3"/>
<circle cx="112.529" cy="77.7382" r="2.91667" transform="rotate(90 112.529 77.7382)" fill="#6DD6D3"/>
</g>
</g>
</g>
<defs>
<clipPath id="clip0_712_147247">
<rect width="210" height="165.278" fill="white" transform="translate(0 0.813477)"/>
</clipPath>
<clipPath id="clip1_712_147247">
<rect width="163.722" height="169.944" fill="white" transform="translate(48.2227 -47.2896)"/>
</clipPath>
<clipPath id="clip2_712_147247">
<rect width="66.8889" height="54.0556" fill="white" transform="translate(157.111 16.4883) rotate(90)"/>
</clipPath>
</defs>
</svg>
