<svg width="48" height="48" viewBox="0 0 48 48" fill="none" xmlns="http://www.w3.org/2000/svg">
<path d="M31.4451 14.7283C32.1612 14.7283 32.8772 14.7863 33.574 14.8831C32.7805 6.52226 25.7551 3.8011e-05 17.2007 3.8011e-05C8.12378 -0.0193158 0.75 7.35447 0.75 16.4314C0.75 24.7922 7.00127 31.6821 15.0718 32.7272C15.0137 32.2047 14.9944 31.7015 14.9944 31.1596C14.9944 22.0633 22.3682 14.7089 31.4451 14.7089V14.7283Z" fill="#F18A00"/>
<path d="M33.574 14.8638C33.632 15.3863 33.6514 15.8895 33.6514 16.4314C33.6514 25.5277 26.2776 32.8821 17.2007 32.8821C16.4846 32.8821 15.7685 32.8241 15.0718 32.7273C15.8653 41.0881 22.8907 47.6103 31.4451 47.6103C40.5413 47.6103 47.8958 40.2366 47.8958 31.1596C47.8958 22.7988 41.6445 15.9089 33.574 14.8638Z" fill="#6DD6D3"/>
<path d="M33.6514 16.4315C33.6514 15.9089 33.6127 15.3864 33.574 14.8638C32.8773 14.767 32.1612 14.709 31.4451 14.709C22.3488 14.709 14.9944 22.0828 14.9944 31.1597C14.9944 31.6822 15.0331 32.2048 15.0718 32.7273C15.7685 32.8241 16.4846 32.8822 17.2007 32.8822C26.297 32.8822 33.6514 25.5084 33.6514 16.4315Z" fill="#3C585F"/>
</svg>
